<svg width="34" height="34" viewBox="0 0 34 34" fill="none" xmlns="http://www.w3.org/2000/svg">
<mask id="mask0_2414_26924" style="mask-type:alpha" maskUnits="userSpaceOnUse" x="0" y="0" width="34" height="34">
<rect width="34" height="34" fill="#D9D9D9"/>
</mask>
<g mask="url(#mask0_2414_26924)">
<path d="M2.83335 26.9155C2.43196 26.9155 2.09551 26.7798 1.82398 26.5082C1.55245 26.2367 1.41669 25.9002 1.41669 25.4989V7.08219C1.41669 6.68081 1.55245 6.34435 1.82398 6.07282C2.09551 5.80129 2.43196 5.66553 2.83335 5.66553C3.23474 5.66553 3.5712 5.80129 3.84273 6.07282C4.11426 6.34435 4.25002 6.68081 4.25002 7.08219V19.8322H15.5834V11.3322C15.5834 10.553 15.8608 9.88601 16.4156 9.33115C16.9705 8.77629 17.6375 8.49886 18.4167 8.49886H26.9167C28.475 8.49886 29.809 9.05372 30.9188 10.1634C32.0285 11.2732 32.5834 12.6072 32.5834 14.1655V25.4989C32.5834 25.9002 32.4476 26.2367 32.1761 26.5082C31.9045 26.7798 31.5681 26.9155 31.1667 26.9155C30.7653 26.9155 30.4288 26.7798 30.1573 26.5082C29.8858 26.2367 29.75 25.9002 29.75 25.4989V22.6655H4.25002V25.4989C4.25002 25.9002 4.11426 26.2367 3.84273 26.5082C3.5712 26.7798 3.23474 26.9155 2.83335 26.9155ZM9.91669 18.4155C8.73613 18.4155 7.73266 18.0023 6.90627 17.1759C6.07988 16.3496 5.66669 15.3461 5.66669 14.1655C5.66669 12.985 6.07988 11.9815 6.90627 11.1551C7.73266 10.3287 8.73613 9.91553 9.91669 9.91553C11.0972 9.91553 12.1007 10.3287 12.9271 11.1551C13.7535 11.9815 14.1667 12.985 14.1667 14.1655C14.1667 15.3461 13.7535 16.3496 12.9271 17.1759C12.1007 18.0023 11.0972 18.4155 9.91669 18.4155Z" fill="#10A6A4"/>
</g>
</svg>
