<svg width="34" height="34" viewBox="0 0 34 34" fill="none" xmlns="http://www.w3.org/2000/svg">
<path d="M24.4375 24.7912C23.8507 24.7912 23.375 25.2669 23.375 25.8537C23.375 26.4405 23.8507 26.9162 24.4375 26.9162H27.625C28.2118 26.9162 28.6875 26.4405 28.6875 25.8537C28.6875 25.2669 28.2118 24.7912 27.625 24.7912H24.4375Z" fill="#10A6A4"/>
<path fill-rule="evenodd" clip-rule="evenodd" d="M8.14585 4.24951C5.99424 4.24951 4.25002 5.99374 4.25002 8.14534V22.6662H2.47919C1.89238 22.6662 1.41669 23.1419 1.41669 23.7287V25.8537C1.41669 28.0053 3.16091 29.7495 5.31252 29.7495H20.0155C20.7301 30.6147 21.8111 31.1662 23.0209 31.1662H28.6875C30.8391 31.1662 32.5834 29.422 32.5834 27.2703V15.2287C32.5834 13.4454 31.3852 11.942 29.75 11.4795V8.14534C29.75 5.99374 28.0058 4.24951 25.8542 4.24951H8.14585ZM21.25 15.2287C21.25 14.2507 22.0428 13.4578 23.0209 13.4578H28.6875C29.6655 13.4578 30.4584 14.2507 30.4584 15.2287V27.2703C30.4584 28.2483 29.6655 29.0412 28.6875 29.0412H23.0209C22.0428 29.0412 21.25 28.2483 21.25 27.2703V15.2287ZM3.54169 24.7912H19.125V27.2703C19.125 27.3897 19.1304 27.5079 19.1409 27.6245H5.31252C4.33452 27.6245 3.54169 26.8317 3.54169 25.8537V24.7912Z" fill="#10A6A4"/>
</svg>
